<svg xmlns="http://www.w3.org/2000/svg" viewBox="0 0 533.5 544.3">
  <path fill="#4285F4" d="M533.5 278.4c0-18.5-1.5-37.1-4.7-55.2H272v104.9h147.1c-6.1 33-24.7 61-52.6 79.7v66.2h84.9c49.7-45.8 82.1-113.4 82.1-195.6z"/>
  <path fill="#34A853" d="M272 544.3c74.7 0 137.4-24.7 183.2-66.9l-84.9-66.2c-23.6 15.8-53.9 25-98.3 25-75.5 0-139.6-51-162.5-119.6H22.5v74.9C68.9 482.5 163.8 544.3 272 544.3z"/>
  <path fill="#FBBC05" d="M109.5 317.6c-10.9-32.9-10.9-68.5 0-101.4V141.3H22.5c-46 91.9-46 200.8 0 292.7l87-66.4z"/>
  <path fill="#EA4335" d="M272 106.1c40.7-.6 79.8 14.7 109.7 43.1l81.8-81.8C409.3 13.6 343.1-5.2 272 0 163.8 0 68.9 61.8 22.5 151.8l87 74.4C132.4 157.2 196.5 106.1 272 106.1z"/>
</svg>

